<?xml version="1.0" encoding="utf-8"?>
<!-- Generator: Adobe Illustrator 27.5.0, SVG Export Plug-In . SVG Version: 6.00 Build 0)  -->
<svg version="1.1" xmlns="http://www.w3.org/2000/svg" xmlns:xlink="http://www.w3.org/1999/xlink" x="0px" y="0px"
	 viewBox="0 0 2200 2200" style="enable-background:new 0 0 2200 2200;" xml:space="preserve">
<g id="background">
	<rect style="fill:#FFFFFF;" width="2200" height="2200"/>
</g>
<g id="Objects">
	<g>
		<g>
			<path style="fill:#F2C300;" d="M1775.819,1052.548c-3.621-0.972-7.531-0.439-10.765,1.462c-5.179,3.045-6.519,7.637-8.215,13.451
				c-0.925,3.167-2.132,7.605-3.693,13.567c-2.857,10.908-6.528,25.529-10.078,39.669c-5.158,20.541-12.13,48.307-14.237,54.688
				c-0.533,0.969-0.959,2.018-1.258,3.135c-2,7.467,2.432,15.143,9.899,17.143c1.187,0.318,2.403,0.474,3.618,0.474
				c2.492,0,4.972-0.66,7.146-1.938c5.178-3.045,6.517-7.636,8.213-13.45c0.924-3.167,2.133-7.604,3.693-13.566
				c2.857-10.908,6.527-25.529,10.077-39.668c5.158-20.542,12.13-48.308,14.238-54.69c0.533-0.969,0.958-2.016,1.258-3.132
				C1787.717,1062.226,1783.286,1054.55,1775.819,1052.548z M1742.486,1168.218c-0.147-0.015-0.295-0.033-0.442-0.043
				C1742.19,1168.185,1742.338,1168.203,1742.486,1168.218z M1741.069,1168.141c-0.437,0-0.872,0.021-1.303,0.062
				C1740.193,1168.16,1740.628,1168.141,1741.069,1168.141z M1743.203,1168.308c0.13,0.02,0.261,0.04,0.392,0.065
				C1743.464,1168.349,1743.334,1168.329,1743.203,1168.308z M1768.57,1079.588c1.669,0.448,3.349,0.574,4.977,0.416
				C1771.979,1080.165,1770.304,1080.054,1768.57,1079.588z"/>
			<path style="fill:#F2C300;" d="M669.354,1064.736c1.188,0.318,2.406,0.475,3.621,0.475c2.498,0,4.982-0.664,7.16-1.948
				c5.533-3.265,6.569-7.242,10.002-20.418c1.828-7.02,4.147-16.382,6.389-25.437c3.09-12.477,7.249-29.272,8.739-33.971
				c0.485-0.916,0.876-1.9,1.156-2.944c2-7.467-2.432-15.143-9.899-17.143c-3.632-0.973-7.542-0.435-10.78,1.475
				c-5.532,3.265-6.567,7.241-10,20.417c-1.828,7.019-4.147,16.382-6.39,25.436c-3.09,12.477-7.249,29.273-8.739,33.973
				c-0.485,0.915-0.875,1.898-1.154,2.94C657.458,1055.057,661.888,1062.733,669.354,1064.736z M695.45,990.637
				c-1.907,0.364-3.989,0.338-6.172-0.246C691.362,990.95,693.46,991.006,695.45,990.637z M676.605,1037.696
				c-0.296-0.079-0.592-0.148-0.889-0.207C676.011,1037.548,676.307,1037.615,676.605,1037.696z M674.739,1037.329
				c-0.592-0.076-1.183-0.114-1.768-0.114c-0.872,0-1.734,0.082-2.576,0.241C671.761,1037.19,673.219,1037.131,674.739,1037.329z
				 M675.597,1037.467c-0.265-0.051-0.53-0.096-0.794-0.131C675.065,1037.372,675.33,1037.415,675.597,1037.467z"/>
			<path style="fill:#F2C300;" d="M1735.477,1104.684c0.461-2.946,0.75-5.203,0.881-6.901c1.003-12.957-8.561-16.189-10.489-16.706
				c-3.676-0.986-7.521-0.465-10.823,1.465c-5.165,3.021-6.956,7.867-9.675,16.174c-0.872,2.662-1.867,5.861-3.002,9.649
				c-2.71-4.329-7.054-5.765-8.291-6.097c-3.678-0.985-7.521-0.466-10.82,1.464c-5.141,3.006-6.9,7.759-9.567,15.899
				c-1.674,5.112-3.818,12.26-6.552,21.852c-4.912,17.226-11.553,41.723-20.302,74.892
				c-16.222,61.495-37.456,144.385-57.991,224.546c-0.169,0.659-0.34,1.326-0.509,1.987c12.139-63.798,24.15-127.129,33.068-175.728
				c5.596-30.496,9.567-52.945,12.139-68.632c1.435-8.753,2.41-15.239,2.978-19.829c0.333-2.687,0.522-4.668,0.594-6.233
				c0.567-12.41-8.691-15.527-10.553-16.026c-3.677-0.984-7.515-0.466-10.811,1.463c-5.325,3.114-7.075,8.449-9.291,15.203
				c-1.54,4.695-3.508,11.252-6.016,20.044c-4.499,15.771-10.578,38.193-18.583,68.547c-14.841,56.267-34.26,132.103-53.04,205.441
				c-1.123,4.383-2.254,8.802-3.393,13.253c9.719-54.322,19.286-107.997,26.416-149.398c4.575-26.563,7.813-46.121,9.902-59.79
				c1.168-7.644,1.956-13.315,2.411-17.335c0.269-2.386,0.418-4.155,0.467-5.564c0.425-12.078-8.713-15.144-10.549-15.636
				c-3.671-0.984-7.508-0.466-10.8,1.46c-5.233,3.061-6.936,8.238-8.907,14.233c-1.354,4.115-3.077,9.848-5.27,17.528
				c-0.919,3.218-1.912,6.753-2.986,10.619c1.512-7.643,2.785-14.24,3.836-19.865c1.464-7.843,2.468-13.66,3.071-17.783
				c0.357-2.442,0.568-4.25,0.665-5.691c0.838-12.453-8.585-15.62-10.481-16.128c-3.673-0.985-7.508-0.466-10.802,1.46
				c-5.25,3.071-6.895,8.077-8.979,14.415c-1.388,4.223-3.156,10.11-5.408,17.997c-4.031,14.122-9.473,34.191-16.636,61.357
				c-7.073,26.824-15.307,58.612-23.995,92.387c11.859-60.891,23.371-120.282,32.122-166.804
				c6.016-31.979,10.288-55.521,13.06-71.969c1.545-9.171,2.596-15.965,3.214-20.771c0.355-2.762,0.567-4.884,0.647-6.486
				c0.628-12.538-8.679-15.676-10.552-16.178c-3.677-0.985-7.518-0.465-10.816,1.464c-5.111,2.989-6.832,7.628-9.436,15.57
				c-1.61,4.915-3.671,11.784-6.299,20.997c-4.716,16.538-11.091,40.055-19.49,71.893c-9.208,34.905-20.094,76.984-31.53,121.46
				c14.696-71.837,29.035-142.219,39.881-197.039c7.268-36.734,12.437-63.772,15.803-82.658c1.872-10.511,3.151-18.292,3.909-23.786
				c0.431-3.12,0.691-5.506,0.797-7.293c0.746-12.576-7.889-15.883-10.554-16.597c-3.682-0.986-7.527-0.465-10.83,1.466
				c-5.217,3.05-7.072,8.092-9.9,16.741c-1.838,5.619-4.195,13.484-7.204,24.045c-5.412,18.992-12.735,46.008-22.387,82.59
				c-17.898,67.839-41.333,159.286-63.997,247.722c-1.016,3.963-2.035,7.941-3.063,11.951c0.839-4.238,1.671-8.445,2.5-12.632
				c17.927-90.587,36.466-184.257,49.692-253.503c7.131-37.34,12.198-64.823,15.489-84.021c1.831-10.682,3.077-18.588,3.81-24.171
				c0.415-3.166,0.664-5.584,0.76-7.394c0.663-12.544-7.927-15.835-10.576-16.545c-3.681-0.986-7.529-0.466-10.832,1.466
				c-5.241,3.064-7.019,7.897-9.958,16.887c-1.867,5.707-4.26,13.697-7.318,24.426c-5.499,19.299-12.941,46.752-22.75,83.928
				c-18.189,68.941-42.007,161.877-65.041,251.753c-5.234,20.422-10.637,41.503-16.089,62.746
				c10.939-58.626,21.73-116.664,29.763-161.335c5.103-28.379,8.723-49.272,11.064-63.873c1.307-8.156,2.194-14.203,2.71-18.486
				c0.304-2.526,0.475-4.392,0.538-5.874c0.519-12.255-8.695-15.352-10.548-15.848c-3.673-0.984-7.511-0.466-10.804,1.461
				c-5.276,3.086-6.957,8.203-9.085,14.682c-1.439,4.383-3.276,10.497-5.615,18.691c-4.189,14.68-9.847,35.547-17.296,63.793
				c-5.588,21.187-11.87,45.349-18.53,71.138c9.821-48.913,19.093-95.401,26.487-133.393c6.293-32.339,10.767-56.144,13.676-72.776
				c1.623-9.272,2.73-16.141,3.384-20.999c0.376-2.789,0.603-4.931,0.693-6.548c0.71-12.622-8.652-15.78-10.538-16.285
				c-3.677-0.986-7.518-0.466-10.816,1.464c-1.116,0.652-2.07,1.385-2.909,2.213c0.487-2.311,0.948-4.512,1.381-6.608
				c2.059-9.951,3.48-17.319,4.344-22.526c0.494-2.972,0.806-5.249,0.954-6.961c1.129-13.07-8.517-16.332-10.462-16.853
				c-3.678-0.985-7.523-0.465-10.824,1.465c-0.76,0.444-1.447,0.928-2.074,1.457c0.129-0.607,0.256-1.208,0.38-1.799
				c2.236-10.608,3.781-18.461,4.723-24.005c0.534-3.148,0.873-5.554,1.036-7.357c1.192-13.238-8.503-16.523-10.459-17.047
				c-3.683-0.987-7.528-0.465-10.831,1.466c-5.236,3.062-7.009,7.878-9.938,16.836c-1.857,5.676-4.237,13.622-7.277,24.292
				c-5.469,19.191-12.869,46.49-22.622,83.457c-15.696,59.494-35.609,136.961-55.568,214.809c0.288-1.397,0.577-2.797,0.865-4.188
				c20.876-101.103,42.462-205.647,57.883-282.929c8.314-41.665,14.229-72.33,18.081-93.746c2.141-11.901,3.602-20.704,4.47-26.914
				c0.487-3.492,0.783-6.15,0.903-8.129c0.783-12.862-7.897-16.204-10.575-16.922c-3.685-0.988-7.537-0.466-10.846,1.468
				c-0.207,0.121-0.408,0.245-0.606,0.372c1.701-8.011,2.958-14.318,3.813-19.135c0.649-3.65,1.061-6.427,1.262-8.489
				c1.302-13.344-7.674-16.813-10.457-17.559c-3.687-0.989-7.541-0.466-10.852,1.47c-5.123,2.995-7.067,7.687-10.588,18.477
				c-2.176,6.666-4.972,16.013-8.55,28.576c-6.447,22.639-15.179,54.855-26.693,98.488c-0.191,0.726-0.384,1.458-0.577,2.188
				c4.14-18.192,8.066-35.537,11.723-51.811c10.56-46.999,18.099-81.586,23.045-105.739c2.745-13.404,4.637-23.315,5.783-30.298
				c0.639-3.894,1.039-6.85,1.224-9.037c1.132-13.392-7.764-16.84-10.518-17.578c-3.691-0.99-7.548-0.466-10.863,1.472
				c-5.214,3.048-7.131,7.705-10.902,19.268c-2.33,7.143-5.327,17.167-9.164,30.644c-6.919,24.303-16.293,58.89-28.656,105.739
				c-21.002,79.58-47.974,184.543-74.688,288.679c0.622-2.829,1.239-5.637,1.858-8.449c27.406-124.599,55.743-253.44,76.026-348.676
				c10.932-51.33,18.723-89.104,23.818-115.478c2.826-14.626,4.764-25.435,5.925-33.045c0.645-4.219,1.041-7.415,1.214-9.769
				c0.966-13.149-7.077-16.752-10.58-17.691c-3.695-0.989-7.556-0.466-10.876,1.475c-5.304,3.1-7.317,8.036-11.32,20.324
				c-2.535,7.781-5.801,18.709-9.984,33.406c-7.55,26.526-17.781,64.282-31.28,115.427
				c-25.045,94.893-57.871,222.842-89.617,346.579c-9.372,36.53-19.133,74.577-28.927,112.664c4.6-21.83,9.159-43.45,13.602-64.513
				c24.071-114.125,48.962-232.136,66.756-319.37c9.591-47.023,16.418-81.628,20.871-105.792
				c2.471-13.412,4.161-23.327,5.166-30.313c0.561-3.895,0.902-6.851,1.045-9.037c0.834-12.837-7.129-16.381-10.591-17.308
				c-3.688-0.99-7.548-0.467-10.862,1.471c-5.215,3.048-7.131,7.704-10.901,19.266c-2.33,7.141-5.326,17.163-9.162,30.636
				c-6.917,24.297-16.288,58.876-28.649,105.714c-22.931,86.89-52.98,204.043-82.038,317.338
				c-18.382,71.667-38.394,149.691-56.851,220.848c2.885-16.658,5.752-33.178,8.532-49.195
				c12.709-73.236,25.851-148.965,35.186-204.954c5.035-30.203,8.595-52.438,10.884-67.974c1.277-8.67,2.136-15.095,2.625-19.643
				c0.287-2.664,0.442-4.628,0.488-6.18c0.357-11.921-8.013-15.097-10.585-15.786c-3.675-0.985-7.514-0.466-10.811,1.462
				c-5.319,3.11-7.058,8.413-9.261,15.128c-1.525,4.649-3.475,11.141-5.957,19.846c-3.888,13.629-8.969,32.278-15.469,56.786
				c0.647-3.618,1.142-6.592,1.5-8.988c0.36-2.418,0.575-4.209,0.675-5.638c0.873-12.464-8.571-15.638-10.473-16.147
				c-3.673-0.985-7.509-0.466-10.801,1.46c-5.242,3.066-6.959,8.289-8.947,14.336c-1.373,4.175-3.122,9.996-5.348,17.794
				c-3.415,11.96-7.852,28.235-13.506,49.541c1.451-7.125,2.848-14.009,4.179-20.605c5.875-29.121,10.057-50.56,12.785-65.541
				c1.524-8.365,2.566-14.566,3.189-18.958c0.366-2.583,0.581-4.491,0.676-6.004c0.788-12.511-8.61-15.674-10.502-16.182
				c-3.673-0.985-7.513-0.466-10.807,1.462c-5.294,3.096-7,8.292-9.159,14.87c-0.964,2.936-2.102,6.631-3.443,11.183
				c1.914-9.298,3.516-17.271,4.827-24.015c1.731-8.908,2.921-15.509,3.639-20.18c0.42-2.731,0.67-4.743,0.789-6.332
				c0.949-12.74-8.565-15.947-10.481-16.461c-3.674-0.983-7.515-0.465-10.813,1.463c-5.339,3.122-7.108,8.517-9.348,15.348
				c-1.567,4.781-3.572,11.461-6.127,20.418c-4.584,16.072-10.779,38.923-18.939,69.86c-10.549,39.994-23.367,89.683-36.652,141.449
				c13.487-67.853,26.7-134.584,36.636-186.327c6.527-33.988,11.164-59.006,14.178-76.484c1.679-9.737,2.823-16.948,3.497-22.045
				c0.385-2.913,0.617-5.146,0.708-6.827c0.665-12.371-7.909-15.644-10.554-16.353c-3.679-0.985-7.522-0.464-10.821,1.464
				c-5.147,3.01-6.915,7.788-9.596,15.975c-1.69,5.158-3.852,12.37-6.612,22.049c-4.957,17.386-11.66,42.111-20.491,75.588
				c-14.97,56.75-34.169,131.547-53.191,205.79c0.303-1.538,0.606-3.077,0.908-4.608c17.555-89.094,35.708-181.221,48.657-249.328
				c6.982-36.726,11.942-63.758,15.162-82.641c1.793-10.509,3.012-18.287,3.729-23.781c0.407-3.119,0.649-5.504,0.742-7.29
				c0.651-12.502-7.929-15.787-10.574-16.495c-3.679-0.985-7.516-0.466-10.811,1.462c-5.322,3.113-7.068,8.432-9.277,15.168
				c-1.533,4.673-3.492,11.199-5.988,19.95c-4.478,15.695-10.527,38.009-18.495,68.217
				c-14.769,55.995-34.093,131.462-52.781,204.444c-11.419,44.598-23.83,93.062-35.366,137.634c0.031-0.267,0.06-0.529,0.091-0.794
				c4.685-41.066,9.53-83.531,12.903-114.937c1.823-16.97,3.084-29.472,3.858-38.22c0.437-4.94,0.713-8.618,0.843-11.246
				c0.082-1.649,0.108-2.895,0.081-3.92c-0.286-10.89-8.835-13.729-10.549-14.189c-3.615-0.969-7.532-0.436-10.762,1.458
				c-5.47,3.206-6.865,8.049-9.918,18.66c-0.067,0.234-0.136,0.473-0.206,0.715c1.393-10.319,2.407-18.205,3.086-23.993
				c0.456-3.89,0.758-6.797,0.921-8.886c0.107-1.368,0.157-2.416,0.158-3.299c0.012-8.511-5.643-13.048-10.492-14.347
				c-3.615-0.969-7.53-0.437-10.761,1.457c-5.392,3.161-6.744,7.847-9.437,17.181c-0.791,2.743-1.717,6.072-2.796,10.047
				c0.229-2.097,0.45-4.135,0.663-6.11c1.238-11.502,2.095-19.981,2.622-25.924c0.301-3.398,0.492-5.943,0.583-7.778
				c0.061-1.232,0.08-2.184,0.059-2.994c-0.214-8.21-5.784-12.595-10.491-13.856c-3.617-0.97-7.528-0.437-10.759,1.459
				c-5.303,3.112-6.66,7.8-8.908,15.564c-1.264,4.367-2.937,10.52-5.114,18.812c-1.686,6.42-3.58,13.77-5.582,21.605
				c0.514-16.417,0.988-32.16,1.308-44.819c0.249-9.885,0.388-17.176,0.423-22.289c0.02-2.94,0.005-5.145-0.044-6.743
				c-0.034-1.098-0.086-1.951-0.163-2.686c-0.785-7.48-5.91-11.444-10.446-12.661c-3.623-0.971-7.532-0.437-10.764,1.464
				c-5.705,3.354-6.64,6.925-11.828,26.738c-1.811,6.917-3.954,15.35-6.184,24.196c-1.859-17.73-3.774-35.983-5.282-49.544
				c-0.83-7.464-1.475-12.973-1.975-16.841c-0.29-2.248-0.531-3.941-0.736-5.177c-1.447-8.734-6.561-11.855-10.59-12.934
				c-3.639-0.975-7.56-0.435-10.801,1.484c-5.444,3.224-6.59,7.646-9.101,17.336c-1.35,5.208-3.037,12.117-4.668,18.798
				c-2.138,8.751-5.003,20.484-6.165,24.267c-0.46,0.886-0.833,1.835-1.102,2.84c-2.003,7.466,2.426,15.143,9.893,17.146
				c3.637,0.976,7.56,0.436,10.801-1.484c0.378-0.224,0.735-0.453,1.073-0.69c0.301,2.866,0.599,5.703,0.889,8.476
				c1.884,17.97,3.833,36.552,5.362,50.31c0.83,7.466,1.476,12.976,1.975,16.845c0.29,2.249,0.531,3.943,0.736,5.18
				c1.447,8.732,6.56,11.854,10.593,12.935c3.624,0.971,7.532,0.438,10.765-1.464c3.203-1.883,4.902-3.835,6.694-8.688
				c-0.525,16.772-1.013,32.893-1.339,45.806c-0.249,9.887-0.388,17.179-0.423,22.293c-0.02,2.94-0.006,5.146,0.044,6.744
				c0.034,1.099,0.086,1.952,0.163,2.686c0.785,7.481,5.91,11.445,10.447,12.661c3.619,0.97,7.529,0.437,10.76-1.459
				c1.656-0.971,2.927-2.096,3.96-3.42c-0.717,6.449-1.385,12.537-1.985,18.111c-1.238,11.504-2.096,19.985-2.622,25.928
				c-0.302,3.399-0.493,5.943-0.584,7.779c-0.062,1.232-0.08,2.184-0.059,2.995c0.214,8.209,5.784,12.594,10.49,13.855
				c3.617,0.971,7.529,0.438,10.76-1.457c1.447-0.848,2.603-1.807,3.573-2.935c-0.508,3.664-0.994,7.189-1.453,10.553
				c-1.809,13.245-3.077,23.007-3.88,29.844c-0.456,3.89-0.758,6.797-0.921,8.885c-0.107,1.369-0.157,2.417-0.158,3.3
				c-0.012,8.512,5.645,13.048,10.493,14.347c3.615,0.968,7.532,0.435,10.762-1.457c5.47-3.206,6.865-8.049,9.918-18.66
				c1.769-6.146,4.13-14.839,7.217-26.577c1.483-5.636,3.081-11.778,4.76-18.278c-4.169,36.561-8.318,73.114-11.31,100.97
				c-1.823,16.97-3.085,29.472-3.859,38.219c-0.437,4.939-0.712,8.619-0.843,11.246c-0.082,1.649-0.108,2.895-0.081,3.92
				c0.286,10.89,8.835,13.729,10.548,14.189c3.677,0.984,7.514,0.464,10.811-1.463c5.321-3.113,7.067-8.432,9.276-15.167
				c1.533-4.673,3.492-11.198,5.988-19.949c4.477-15.694,10.527-38.008,18.494-68.216c10.743-40.734,23.9-91.779,37.467-144.67
				c-17.443,88.525-35.436,179.855-48.297,247.496c-6.982,36.726-11.942,63.758-15.162,82.641
				c-1.793,10.509-3.012,18.287-3.729,23.781c-0.407,3.119-0.649,5.504-0.742,7.29c-0.651,12.503,7.929,15.787,10.575,16.495
				c3.678,0.986,7.521,0.466,10.82-1.464c5.148-3.01,6.916-7.788,9.597-15.975c1.69-5.158,3.852-12.371,6.612-22.049
				c4.958-17.386,11.66-42.112,20.491-75.589c13.844-52.481,31.306-120.402,48.899-189.04
				c-13.836,69.597-27.462,138.375-37.646,191.413c-6.528,33.992-11.167,59.013-14.181,76.493
				c-1.679,9.739-2.823,16.95-3.497,22.048c-0.385,2.914-0.617,5.147-0.708,6.827c-0.665,12.371,7.909,15.644,10.555,16.352
				c3.673,0.988,7.516,0.466,10.812-1.462c5.339-3.122,7.108-8.517,9.348-15.348c1.567-4.781,3.571-11.46,6.127-20.417
				c1.698-5.953,3.616-12.835,5.774-20.716c-1.219,6.003-2.287,11.362-3.21,16.113c-1.731,8.908-2.921,15.509-3.639,20.18
				c-0.42,2.731-0.67,4.743-0.789,6.333c-0.949,12.739,8.565,15.947,10.48,16.46c3.674,0.983,7.512,0.466,10.807-1.461
				c5.295-3.095,7-8.292,9.16-14.871c1.475-4.495,3.359-10.769,5.759-19.179c4.301-15.074,10.111-36.503,17.761-65.51
				c2.162-8.198,4.427-16.833,6.774-25.826c-1.514,7.427-2.968,14.596-4.352,21.453c-5.875,29.125-10.058,50.566-12.786,65.549
				c-1.523,8.367-2.566,14.568-3.189,18.96c-0.366,2.584-0.581,4.492-0.676,6.005c-0.788,12.512,8.61,15.675,10.502,16.182
				c3.673,0.983,7.508,0.466,10.801-1.461c5.242-3.066,6.96-8.289,8.947-14.337c1.374-4.176,3.123-9.997,5.349-17.796
				c0.083-0.29,0.167-0.584,0.251-0.88c-1.089,5.861-1.868,10.385-2.372,13.762c-0.36,2.417-0.575,4.209-0.675,5.637
				c-0.873,12.463,8.57,15.637,10.474,16.148c3.673,0.984,7.514,0.465,10.81-1.463c5.318-3.11,7.059-8.414,9.261-15.128
				c1.525-4.65,3.475-11.143,5.957-19.848c4.455-15.612,10.472-37.809,18.398-67.858c14.69-55.698,33.911-130.765,52.5-203.361
				c2.826-11.035,5.71-22.297,8.628-33.689c-1.69,9.744-3.364,19.394-5.008,28.863c-12.709,73.23-25.85,148.954-35.182,204.937
				c-5.035,30.2-8.594,52.432-10.883,67.967c-1.277,8.669-2.136,15.094-2.625,19.641c-0.287,2.663-0.442,4.626-0.488,6.179
				c-0.357,11.92,8.011,15.096,10.586,15.786c3.69,0.989,7.546,0.465,10.863-1.471c5.214-3.048,7.131-7.705,10.9-19.265
				c2.329-7.142,5.325-17.163,9.162-30.636c6.917-24.296,16.288-58.875,28.649-105.713c22.931-86.89,52.979-204.041,82.038-317.336
				c5.008-19.523,10.141-39.537,15.327-59.738c-3.876,18.393-7.716,36.594-11.472,54.402
				c-24.07,114.12-48.96,232.125-66.752,319.353c-9.591,47.02-16.418,81.622-20.87,105.786c-2.471,13.41-4.161,23.324-5.166,30.31
				c-0.56,3.895-0.902,6.851-1.045,9.037c-0.834,12.836,7.128,16.38,10.591,17.308c3.695,0.991,7.556,0.467,10.876-1.475
				c5.304-3.099,7.317-8.035,11.32-20.323c2.535-7.782,5.801-18.709,9.984-33.406c7.55-26.526,17.781-64.282,31.28-115.427
				c25.046-94.893,57.871-222.843,89.616-346.579c2.311-9.007,4.649-18.119,7.001-27.288c-1.606,7.307-3.203,14.566-4.787,21.766
				c-27.406,124.599-55.743,253.44-76.026,348.676c-10.932,51.331-18.723,89.104-23.818,115.479
				c-2.825,14.625-4.764,25.435-5.925,33.045c-0.645,4.219-1.041,7.415-1.215,9.769c-0.966,13.149,7.077,16.751,10.58,17.69
				c3.688,0.988,7.547,0.466,10.862-1.471c5.215-3.048,7.131-7.705,10.902-19.268c2.33-7.142,5.327-17.166,9.164-30.641
				c6.918-24.302,16.291-58.887,28.654-105.732c4.915-18.624,10.156-38.633,15.645-59.701c-4.455,19.564-8.671,38.179-12.579,55.57
				c-10.56,47-18.099,81.587-23.045,105.741c-2.746,13.405-4.637,23.315-5.783,30.298c-0.639,3.894-1.039,6.85-1.224,9.037
				c-1.132,13.391,7.764,16.84,10.519,17.578c3.688,0.991,7.541,0.466,10.852-1.47c3.236-1.892,5.204-4.461,7.102-8.817
				c1.55,8.168,7.969,10.6,10.245,11.21c3.686,0.988,7.537,0.466,10.845-1.468c5.336-3.119,7.229-8.301,10.381-17.952
				c2.073-6.349,4.736-15.247,8.141-27.203c6.134-21.535,14.439-52.176,25.389-93.673c20.311-76.97,46.915-180.737,72.644-281.089
				c1.693-6.604,3.404-13.277,5.126-19.991c-1.012,4.904-2.021,9.786-3.021,14.629c-20.877,101.108-42.464,205.66-57.887,282.947
				c-8.315,41.669-14.23,72.336-18.082,93.755c-2.141,11.902-3.604,20.707-4.47,26.917c-0.487,3.491-0.783,6.151-0.903,8.129
				c-0.783,12.863,7.898,16.205,10.576,16.922c3.679,0.986,7.527,0.465,10.831-1.465c4.164-2.435,6.137-5.979,8.245-11.834
				c0.292,10.932,8.741,13.784,10.552,14.269c3.678,0.987,7.522,0.466,10.825-1.465c4.833-2.826,6.723-7.27,9.182-14.659
				c-0.008,0.091-0.016,0.18-0.024,0.268c-1.129,13.069,8.516,16.331,10.462,16.853c3.675,0.986,7.517,0.466,10.817-1.463
				c5.119-2.994,6.851-7.664,9.472-15.661c1.629-4.969,3.712-11.914,6.369-21.232c4.77-16.727,11.219-40.514,19.713-72.718
				c10.813-40.992,23.92-91.78,37.524-144.772c-10.373,51.626-20.211,100.909-27.979,140.823
				c-6.293,32.342-10.768,56.149-13.678,72.783c-1.623,9.274-2.73,16.143-3.384,21.001c-0.376,2.79-0.603,4.932-0.694,6.548
				c-0.709,12.623,8.655,15.781,10.538,16.285c3.673,0.984,7.511,0.466,10.805-1.461c5.276-3.086,6.957-8.203,9.085-14.683
				c1.439-4.383,3.276-10.497,5.615-18.69c4.19-14.681,9.847-35.548,17.297-63.794c11.057-41.928,24.844-95.533,38.866-150.266
				c-9.974,53.492-19.638,105.589-26.992,146.48c-5.104,28.378-8.723,49.271-11.064,63.871c-1.307,8.156-2.194,14.203-2.71,18.486
				c-0.304,2.525-0.475,4.392-0.538,5.874c-0.519,12.256,8.696,15.352,10.546,15.848c3.682,0.986,7.529,0.465,10.833-1.465
				c5.241-3.065,7.019-7.899,9.959-16.888c1.867-5.708,4.26-13.699,7.318-24.429c5.501-19.302,12.942-46.757,22.752-83.936
				c18.191-68.947,42.01-161.89,65.047-251.772c1.61-6.281,3.237-12.631,4.875-19.022c-0.917,4.637-1.827,9.233-2.732,13.809
				c-17.928,90.586-36.466,184.255-49.692,253.501c-7.132,37.34-12.198,64.823-15.489,84.02c-1.831,10.682-3.077,18.588-3.81,24.17
				c-0.415,3.166-0.664,5.585-0.76,7.394c-0.663,12.545,7.928,15.835,10.576,16.544c3.682,0.988,7.527,0.466,10.83-1.465
				c5.217-3.05,7.071-8.092,9.9-16.741c1.838-5.62,4.195-13.485,7.204-24.045c5.412-18.993,12.735-46.008,22.387-82.59
				c15.437-58.51,34.993-134.581,54.62-211.137c-15.428,75.393-30.63,149.931-41.996,207.378
				c-7.268,36.734-12.437,63.772-15.802,82.658c-1.873,10.511-3.152,18.292-3.91,23.786c-0.43,3.121-0.691,5.506-0.797,7.294
				c-0.746,12.576,7.89,15.882,10.553,16.597c3.677,0.986,7.517,0.466,10.816-1.462c5.112-2.989,6.833-7.628,9.437-15.571
				c1.611-4.915,3.672-11.784,6.3-20.997c4.716-16.539,11.091-40.055,19.49-71.895c13.127-49.766,29.671-114.127,46.35-179.207
				c-12.448,63.888-24.64,126.718-33.804,175.438c-6.016,31.98-10.288,55.522-13.06,71.97c-1.545,9.171-2.596,15.965-3.214,20.77
				c-0.355,2.762-0.567,4.884-0.647,6.486c-0.628,12.537,8.678,15.675,10.551,16.177c3.673,0.984,7.509,0.466,10.802-1.461
				c5.25-3.07,6.895-8.076,8.978-14.414c1.388-4.222,3.156-10.108,5.408-17.994c1.81-6.343,3.905-13.886,6.314-22.734
				c-1.364,6.915-2.524,12.941-3.494,18.138c-1.464,7.843-2.469,13.66-3.072,17.782c-0.357,2.441-0.568,4.25-0.665,5.691
				c-0.838,12.453,8.585,15.62,10.48,16.128c3.673,0.983,7.507,0.466,10.801-1.46c5.233-3.06,6.936-8.238,8.907-14.234
				c1.354-4.114,3.077-9.848,5.27-17.528c3.924-13.743,9.22-33.274,16.19-59.71c10.78-40.879,24.327-93.615,38.009-147.048
				c-9.344,52.238-18.466,103.471-25.33,143.333c-4.576,26.566-7.815,46.126-9.903,59.797c-1.168,7.645-1.956,13.316-2.411,17.336
				c-0.269,2.387-0.418,4.156-0.467,5.565c-0.425,12.08,8.715,15.145,10.551,15.636c3.674,0.987,7.515,0.465,10.811-1.462
				c5.325-3.114,7.076-8.449,9.291-15.205c1.541-4.696,3.509-11.253,6.017-20.046c4.499-15.772,10.579-38.196,18.586-68.554
				c12.755-48.36,28.89-111.168,45.096-174.427c-11.812,62.088-23.426,123.372-32.11,170.695
				c-5.596,30.495-9.567,52.944-12.139,68.631c-1.436,8.753-2.41,15.239-2.978,19.828c-0.333,2.688-0.522,4.667-0.594,6.233
				c-0.568,12.41,8.691,15.527,10.553,16.026c3.678,0.986,7.52,0.466,10.82-1.464c2.548-1.49,4.265-3.408,5.674-5.956
				c2.427,6.04,7.968,7.885,9.393,8.267c3.678,0.986,7.522,0.466,10.823-1.464c5.166-3.021,6.956-7.867,9.676-16.173
				c1.727-5.276,3.94-12.657,6.764-22.564c3.132-10.985,6.945-24.836,11.531-41.889c-3.182,15.047-5.729,27.419-7.693,37.374
				c-1.944,9.854-3.282,17.15-4.09,22.307c-0.461,2.945-0.75,5.203-0.881,6.901c-1.002,12.957,8.561,16.19,10.488,16.706
				c1.186,0.318,2.403,0.475,3.618,0.475c2.491,0,4.97-0.659,7.142-1.934c5.298-3.109,6.645-7.759,8.876-15.464
				c1.248-4.309,2.898-10.381,5.045-18.561c3.949-15.044,9.058-35.251,13.998-54.792c7.788-30.806,17.402-68.839,20.074-76.677
				c0.582-1.02,1.043-2.131,1.361-3.318c1.712-6.387-1.282-12.927-6.858-15.937c11.7-52.855,24.759-111.114,36.725-164.503
				c18.7-83.434,38.037-169.707,51.887-233.488c7.469-34.397,12.796-59.716,16.287-77.405
				C1733.331,1117.136,1734.669,1109.84,1735.477,1104.684z M432.231,1191.362c-1.2,0-2.38,0.155-3.514,0.451
				c1.903-0.51,4.008-0.63,6.233-0.184C434.04,1191.449,433.13,1191.362,432.231,1191.362z"/>
		</g>
		<path style="fill:#F2C300;" d="M1182.903,445.824c-0.271,1.018-0.653,1.977-1.12,2.876c-1.255,4.047-4.471,17.154-6.863,26.91
			c-1.799,7.33-3.656,14.905-5.141,20.606c-2.74,10.562-3.877,14.939-9.34,18.172c-3.241,1.917-7.16,2.46-10.791,1.485
			c-8.399-2.257-9.96-9.493-10.884-13.82c-0.432-1.994-1.009-4.827-1.764-8.645c-0.17-0.865-0.348-1.765-0.526-2.689
			c-0.39,1.535-0.772,2.995-1.128,4.377c-3.47,13.319-4.522,17.34-10.053,20.606c-2.18,1.281-4.666,1.951-7.16,1.951
			c-1.213,0-2.435-0.161-3.622-0.475c-3.164-0.848-8.721-3.504-10.358-11.707c-0.136-0.704-0.314-1.722-0.526-3.012
			c-0.288-1.773-0.653-4.157-1.103-7.262c-1.866,6.261-3.529,9.145-7.584,11.537c-3.241,1.917-7.152,2.452-10.782,1.476
			c-7.465-1.994-11.902-9.671-9.9-17.137c0.28-1.035,0.662-2.011,1.145-2.927c1.417-4.496,5.277-20.114,8.144-31.72
			c2.095-8.509,4.276-17.298,5.989-23.898c3.198-12.309,4.284-16.449,9.79-19.707c3.241-1.909,7.152-2.452,10.782-1.476
			c3.173,0.848,8.729,3.504,10.358,11.707c0.136,0.696,0.322,1.714,0.526,3.003c0.288,1.748,0.645,4.081,1.086,7.118
			c2.791-10.579,4.123-14.159,9.145-17.128c3.232-1.909,7.151-2.443,10.774-1.476c8.399,2.248,9.96,9.493,10.884,13.82
			c0.433,2.002,1.01,4.827,1.765,8.653c0.178,0.916,0.365,1.875,0.56,2.867c1.578-4.827,3.292-7.55,7.007-9.747
			c3.232-1.917,7.151-2.452,10.791-1.485C1180.469,430.682,1184.897,438.359,1182.903,445.824z"/>
		<path style="fill:#F2C300;" d="M714.472,740.125c-0.073,0.964-0.256,1.894-0.526,2.784c-0.451,3.863-1.145,16.234-1.66,25.441
			c-0.388,6.918-0.789,14.067-1.168,19.462c-0.693,9.993-0.982,14.135-5.368,17.973c-2.602,2.276-6.047,3.427-9.488,3.158
			c-7.959-0.622-10.587-6.889-12.151-10.638c-0.726-1.726-1.724-4.186-3.049-7.504c-0.299-0.752-0.611-1.534-0.928-2.338
			c-0.093,1.451-0.192,2.833-0.281,4.141c-0.887,12.604-1.159,16.41-5.601,20.29c-1.752,1.523-3.882,2.547-6.133,2.967
			c-1.095,0.204-2.224,0.265-3.349,0.182c-2.999-0.232-8.461-1.693-11.32-8.82c-0.241-0.613-0.573-1.501-0.982-2.629
			c-0.559-1.552-1.29-3.641-2.219-6.368c-0.63,5.964-1.644,8.848-4.901,11.69c-2.602,2.276-6.041,3.417-9.482,3.149
			c-7.073-0.541-12.371-6.723-11.822-13.797c0.078-0.981,0.258-1.926,0.54-2.834c0.521-4.296,1.373-19.041,2.006-29.997
			c0.457-8.032,0.944-16.331,1.379-22.576c0.812-11.648,1.095-15.567,5.515-19.434c2.603-2.269,6.041-3.417,9.482-3.149
			c3.006,0.231,8.468,1.691,11.32,8.82c0.24,0.605,0.58,1.492,0.981,2.622c0.555,1.529,1.269,3.574,2.179,6.24
			c0.737-10.017,1.335-13.472,5.367-16.998c2.595-2.267,6.042-3.41,9.474-3.147c7.958,0.614,10.587,6.889,12.151,10.638
			c0.728,1.734,1.724,4.186,3.05,7.512c0.315,0.797,0.645,1.631,0.988,2.493c0.611-4.622,1.698-7.368,4.682-9.977
			c2.594-2.275,6.041-3.417,9.488-3.158C709.723,726.869,715.013,733.052,714.472,740.125z"/>
		<path style="fill:#F2C300;" d="M303.368,887.65c0.42,0.871,0.728,1.767,0.941,2.672c1.547,3.569,7.151,14.619,11.323,22.843
			c3.133,6.18,6.373,12.566,8.75,17.424c4.412,8.993,6.24,12.722,4.37,18.241c-1.109,3.274-3.513,5.997-6.625,7.49
			c-7.198,3.454-12.615-0.65-15.847-3.11c-1.494-1.129-3.591-2.757-6.401-4.963c-0.636-0.501-1.298-1.02-1.975-1.558
			c0.647,1.303,1.254,2.547,1.834,3.723c5.553,11.35,7.227,14.779,5.33,20.363c-0.752,2.196-2.081,4.15-3.818,5.643
			c-0.845,0.726-1.792,1.345-2.806,1.837c-2.711,1.303-8.169,2.779-14.217-1.953c-0.516-0.409-1.249-1.011-2.168-1.782
			c-1.262-1.062-2.942-2.503-5.113-4.396c2.447,5.476,3.015,8.479,1.623,12.571c-1.109,3.274-3.512,5.986-6.624,7.479
			c-6.391,3.079-14.074,0.388-17.147-6.008c-0.424-0.888-0.742-1.796-0.954-2.723c-1.704-3.978-8.361-17.162-13.309-26.958
			c-3.632-7.178-7.373-14.602-10.129-20.223c-5.138-10.484-6.859-14.017-4.975-19.579c1.114-3.268,3.512-5.986,6.624-7.479
			c2.717-1.308,8.174-2.784,14.217,1.953c0.511,0.403,1.25,1,2.163,1.776c1.246,1.044,2.89,2.455,5.015,4.306
			c-4.386-9.036-5.601-12.325-3.881-17.398c1.108-3.263,3.517-5.98,6.618-7.474c7.193-3.46,12.615,0.65,15.847,3.11
			c1.499,1.135,3.591,2.757,6.406,4.969c0.672,0.531,1.376,1.087,2.106,1.661c-1.79-4.305-2.226-7.226-0.953-10.98
			c1.103-3.269,3.512-5.986,6.625-7.49C292.612,878.564,300.289,881.26,303.368,887.65z"/>
		<path style="fill:#F2C300;" d="M1447.834,735.883c0.073,0.964,0.256,1.894,0.526,2.784c0.451,3.863,1.145,16.234,1.66,25.441
			c0.388,6.918,0.788,14.068,1.168,19.462c0.693,9.993,0.982,14.135,5.368,17.973c2.602,2.276,6.047,3.426,9.488,3.158
			c7.959-0.622,10.587-6.889,12.151-10.638c0.726-1.726,1.724-4.186,3.049-7.504c0.299-0.752,0.611-1.534,0.928-2.338
			c0.093,1.451,0.192,2.833,0.281,4.141c0.887,12.604,1.159,16.411,5.601,20.29c1.752,1.523,3.882,2.547,6.133,2.967
			c1.095,0.204,2.224,0.265,3.349,0.182c2.999-0.232,8.461-1.693,11.32-8.82c0.241-0.613,0.573-1.501,0.982-2.629
			c0.559-1.552,1.29-3.641,2.219-6.368c0.63,5.964,1.644,8.848,4.901,11.69c2.602,2.276,6.041,3.417,9.482,3.149
			c7.073-0.541,12.371-6.722,11.822-13.797c-0.078-0.981-0.258-1.926-0.54-2.834c-0.521-4.296-1.373-19.041-2.006-29.997
			c-0.457-8.032-0.944-16.331-1.379-22.576c-0.812-11.648-1.095-15.567-5.515-19.434c-2.603-2.269-6.041-3.417-9.482-3.149
			c-3.006,0.231-8.468,1.691-11.32,8.82c-0.24,0.605-0.58,1.492-0.981,2.622c-0.555,1.529-1.269,3.574-2.179,6.24
			c-0.737-10.017-1.335-13.472-5.367-16.998c-2.595-2.267-6.042-3.41-9.474-3.147c-7.958,0.614-10.587,6.889-12.151,10.638
			c-0.728,1.734-1.724,4.186-3.05,7.512c-0.315,0.797-0.645,1.63-0.988,2.493c-0.611-4.622-1.698-7.368-4.682-9.977
			c-2.594-2.275-6.041-3.417-9.488-3.158C1452.582,722.628,1447.292,728.81,1447.834,735.883z"/>
		<path style="fill:#F2C300;" d="M1896.632,860.543c-0.42,0.871-0.728,1.767-0.941,2.672c-1.547,3.569-7.151,14.619-11.323,22.843
			c-3.133,6.18-6.373,12.566-8.75,17.424c-4.412,8.993-6.24,12.722-4.37,18.241c1.109,3.274,3.513,5.997,6.625,7.49
			c7.198,3.454,12.615-0.65,15.847-3.11c1.494-1.129,3.591-2.757,6.401-4.963c0.636-0.501,1.298-1.02,1.975-1.558
			c-0.647,1.303-1.254,2.547-1.834,3.723c-5.553,11.35-7.227,14.779-5.33,20.363c0.752,2.196,2.081,4.15,3.818,5.643
			c0.845,0.726,1.792,1.345,2.807,1.837c2.711,1.303,8.169,2.779,14.217-1.953c0.516-0.409,1.249-1.011,2.168-1.782
			c1.262-1.062,2.942-2.503,5.113-4.396c-2.447,5.476-3.015,8.479-1.623,12.571c1.109,3.274,3.512,5.986,6.624,7.479
			c6.391,3.079,14.074,0.388,17.147-6.008c0.424-0.888,0.742-1.796,0.954-2.723c1.704-3.978,8.361-17.162,13.309-26.958
			c3.632-7.178,7.373-14.602,10.129-20.223c5.138-10.484,6.859-14.017,4.975-19.579c-1.114-3.268-3.512-5.986-6.624-7.479
			c-2.717-1.308-8.174-2.784-14.217,1.953c-0.511,0.403-1.25,1-2.163,1.776c-1.247,1.044-2.891,2.455-5.015,4.306
			c4.386-9.036,5.601-12.325,3.881-17.398c-1.108-3.263-3.517-5.98-6.618-7.474c-7.193-3.46-12.615,0.65-15.847,3.11
			c-1.499,1.135-3.591,2.757-6.406,4.969c-0.672,0.531-1.376,1.087-2.105,1.661c1.79-4.305,2.226-7.226,0.953-10.98
			c-1.103-3.269-3.512-5.986-6.625-7.49C1907.388,851.456,1899.711,854.152,1896.632,860.543z"/>
		<g>
			<path d="M1822.766,1006.904c-13.082-3.291-28.711-3.374-41.122,2.447c-83.467,39.147-159.375,94.223-222.16,161.743
				c-1.129,1.214-2.243,2.441-3.365,3.661c-20.864-72.212-41.727-144.424-62.592-216.636c-2.574-8.909-5.148-17.817-7.722-26.726
				c-3.498-12.107-18.362-14.685-29.423-15.371c-10.877-0.674-30.996,0.004-37.232,11.21
				c-14.917,26.806-29.834,53.612-44.751,80.418c-15.689,28.194-31.379,56.388-47.068,84.582
				c-38.809-110.927-80.442-220.864-124.918-329.645c-15.333-37.502-31.008-74.862-47.002-112.087
				c-4.152-9.664-24.253-11.665-32.722-11.49c-5.757,0.119-11.535,0.73-17.127,2.137c-4.668,1.174-13.166,4.429-15.594,9.353
				c-69.3,140.507-135.616,282.483-198.841,425.827c-8.984,20.368-17.904,40.764-26.763,61.187
				c-31.482-49.735-61.614-100.352-94.617-149.107c-12.972-19.164-26.363-38.047-40.5-56.372
				c-8.219-10.654-24.927-11.973-37.232-11.21c-10.745,0.666-26.453,3.162-29.423,15.371
				c-21.826,89.697-39.844,180.333-54.514,271.473c-8.545-8.945-17.355-17.636-26.448-26.026
				c-34.629-31.956-73.135-58.997-113.589-83.033c-26.47-15.727-53.796-29.921-81.653-43.021c-11.781-5.54-28.668-6.25-41.122-2.447
				c-8.332,2.545-19.25,7.307-15.595,17.674c32.496,92.169,65.587,184.133,96.591,276.82
				c30.969,92.584,60.315,185.892,83.383,280.796c0.009,0.793,0.211,1.531,0.546,2.221c0.056,0.232,0.115,0.464,0.171,0.697
				c11.54,47.763,21.485,95.993,27.849,144.739c1.787,13.691,23.983,15.324,33.934,15.65c8.985,0.294,17.971,0.589,26.956,0.883
				c24.456,0.801,48.913,1.602,73.369,2.402c36.378,1.191,72.756,2.382,109.133,3.574c44.182,1.447,88.364,2.894,132.545,4.34
				c48.388,1.584,96.776,3.169,145.164,4.753c48.845,1.599,97.69,3.199,146.535,4.798c45.553,1.492,91.107,2.983,136.66,4.475
				c38.512,1.261,77.025,2.522,115.537,3.783c27.826,0.911,55.651,1.823,83.477,2.734c11.782,0.386,23.571,0.893,35.358,1.186
				c1.945,0.141,3.846,0.194,5.644,0.157c9.115,0.299,33.934-2.413,33.934-15.65c8.915-56.072,19.889-111.831,32.209-167.294
				c0.441-0.775,0.707-1.613,0.707-2.519c0-0.167-0.026-0.326-0.042-0.489c10.113-45.339,21.119-90.48,32.651-135.427
				c28.102-109.526,59.841-218.241,96.964-325.065c18.04-51.914,37.365-103.445,59.414-153.801
				C1842.687,1014.697,1830.497,1008.848,1822.766,1006.904z M1482.199,1790.238c-36.378-1.191-72.756-2.382-109.133-3.574
				c-44.182-1.447-88.364-2.894-132.545-4.34c-48.388-1.584-96.776-3.169-145.163-4.753c-48.845-1.599-97.69-3.199-146.535-4.798
				c-45.553-1.492-91.107-2.983-136.66-4.475c-38.513-1.261-77.025-2.522-115.538-3.783c-27.826-0.911-55.651-1.822-83.477-2.734
				c-3.028-0.099-6.057-0.213-9.087-0.33c-5.895-40.85-14.04-81.361-23.587-121.561c127.768-2.999,255.574-4.361,383.377-4.054
				c139.299,0.335,278.594,2.62,417.829,6.886c65.84,2.017,131.666,4.488,197.472,7.401
				c-10.358,47.236-19.864,94.678-27.827,142.379C1528.282,1791.747,1505.241,1790.993,1482.199,1790.238z M1668.003,1310.604
				c-31.471,103.947-59.49,209.01-83.396,314.963c-128.99-5.756-258.055-9.81-387.153-12.15
				c-139.474-2.528-278.983-3.092-418.473-1.692c-68.191,0.685-136.377,1.845-204.552,3.474
				c-9.241-36.729-19.505-73.203-30.131-109.447c-28.677-97.816-61.511-194.371-95.218-290.55
				c-11.42-32.585-22.963-65.127-34.497-97.672c1.146,0.671,2.298,1.333,3.441,2.009c0.081,0.048,0.132,0.078,0.202,0.119
				c0.144,0.087,0.319,0.194,0.535,0.325c0.995,0.603,1.992,1.205,2.986,1.811c5.528,3.371,11.012,6.813,16.45,10.328
				c9.514,6.149,18.885,12.522,28.081,19.138c17.428,12.539,34.234,25.945,50.236,40.263c7.685,6.876,15.184,13.96,22.485,21.243
				c3.353,3.345,6.665,6.731,9.933,10.159c1.729,1.813,3.434,3.649,5.151,5.473c0.032,0.034,0.406,0.438,0.74,0.8
				c0.61,0.673,1.963,2.16,2.142,2.359c14.784,16.438,28.58,33.727,41.596,51.593c7.847,10.771,25.245,11.953,37.232,11.21
				c9.771-0.605,27.72-3.128,29.423-15.371c12.048-86.615,27.432-172.801,45.858-258.285c0.767-3.556,1.556-7.107,2.334-10.661
				c31.059,46.675,59.86,94.926,89.799,142.243c11.464,18.118,23.09,36.137,35.216,53.821c6.436,9.386,22.341,11.704,32.722,11.49
				c5.757-0.119,11.535-0.73,17.127-2.137c4.323-1.088,13.513-4.477,15.595-9.353c61.537-144.147,126.121-286.99,193.766-428.374
				c7.523-15.725,15.096-31.426,22.695-47.114c44.996,108.091,87.228,217.329,126.61,327.592
				c13.653,38.228,26.958,76.579,39.937,115.041c3.263,9.669,24.996,11.649,32.722,11.49c10.018-0.207,27.132-1.445,32.722-11.49
				c14.917-26.806,29.834-53.612,44.751-80.418c14.813-26.619,29.626-53.239,44.439-79.858
				c13.932,48.218,27.864,96.437,41.795,144.656c7.655,26.494,15.31,52.988,22.964,79.482c3.498,12.107,18.362,14.685,29.423,15.371
				c12.305,0.763,29.147-0.462,37.232-11.21c48.191-64.06,107.351-119.709,174.662-164.061
				C1717.355,1153.65,1691.791,1232.036,1668.003,1310.604z"/>
			<path d="M1121.897,397.531c0.117,0.002,0.221,0.004,0.331,0.006c-0.067-0.007-0.134-0.015-0.201-0.022
				C1121.985,397.52,1121.942,397.525,1121.897,397.531z"/>
			<path d="M1152.945,542.997c40.32-4.73,88.845-29.06,92.091-74.907c1.734-36.997-30.734-66.024-63.601-76.104
				c-28.13-8.627-58.837-9.305-87.898-6.213c-20.655,2.198-42.182,7.491-59.56,19.342c-15.697,10.704-27.576,29.355-29.77,48.303
				c-2.129,18.383,4.521,37.647,15.978,51.962C1050.383,543.108,1108.694,548.188,1152.945,542.997z M1122.987,397.548
				c-0.428-0.068-0.482-0.069-0.146-0.002c-0.191-0.003-0.395-0.006-0.612-0.01c0.315,0.035,0.631,0.063,0.944,0.105
				c0.135,0.018,0.27,0.041,0.405,0.059c-0.418-0.034-1.019-0.082-1.843-0.149c0.058-0.007,0.107-0.014,0.162-0.021
				c-0.132-0.002-0.276-0.005-0.417-0.008c0.008-0.001,0.014-0.003,0.022-0.004c0.068-0.004,0.128-0.007,0.205-0.011
				c0.06-0.003,0.123-0.006,0.187-0.009c0.044,0.005,0.089,0.01,0.133,0.015c0.069-0.009,0.144-0.018,0.208-0.027
				C1124.379,397.427,1127.595,397.612,1122.987,397.548z M1121.223,397.425c-0.104,0.012-0.196,0.024-0.282,0.035
				c-0.593-0.089-1.304-0.196-2.157-0.323C1119.592,397.257,1120.407,397.342,1121.223,397.425z M1074.918,427.848
				c3.981-6.018,8.51-11.513,14.158-16.049c2.432-1.953,5.005-3.726,7.673-5.341c0.341-0.207,3.397-1.892,3.319-1.894
				c1.526-0.758,3.09-1.451,4.661-2.105c3.01-1.252,6.085-2.281,9.183-3.285c0.794-0.202,1.588-0.399,2.386-0.583
				c1.292-0.297,2.589-0.557,3.887-0.821c0.398-0.056,0.795-0.115,1.194-0.167c1.847,0.227,3.282,0.422,0.464-0.005
				c0.701,0.043,1.377,0.089,1.854,0.122c0.07,0.01,0.139,0.021,0.208,0.03c0.077,0.014,0.148,0.028,0.232,0.043
				c1.579,0.369,3.16,0.709,4.734,1.088c0.47,0.146,1.473,0.447,2.293,0.724c1.906,0.644,3.791,1.349,5.652,2.113
				c1.693,0.696,3.374,1.438,5.02,2.243c0.092,0.077,2.664,1.439,2.555,1.377c11.967,6.807,22.287,16.25,29.817,27.78
				c6.301,10.655,9.838,22.515,9.254,34.974c-0.704,9.949-3.958,19.244-9.03,27.761c-7.578,11.505-17.985,20.859-29.951,27.654
				c-2.522,1.432-4.028,2.157-7.441,3.584c-1.831,0.765-3.687,1.472-5.561,2.122c-0.83,0.288-6.229,1.785-3.34,1.085
				c-0.717,0.178-1.437,0.349-2.157,0.516c-0.2-0.044-0.402-0.083-0.602-0.128c-0.462-0.103-1.927-0.414-2.851-0.605
				c-3.413-0.881-6.813-2.308-10.031-3.644c-1.354-0.562-2.697-1.152-4.026-1.77c-0.881-0.41-1.757-0.832-2.626-1.267
				c0.958,0.465,0.711,0.317-0.741-0.443c-11.731-6.855-22.089-15.343-29.605-26.75
				C1062.862,474.806,1062.226,449.244,1074.918,427.848z"/>
			<path d="M661.709,827.875c0.113-0.025,0.226-0.049,0.339-0.074C661.09,827.61,661.157,827.706,661.709,827.875z"/>
			<path d="M577.761,817.041c14.133,11.765,32.347,17.758,50.232,20.733c27.01,4.493,55.948,3.961,82.376-3.558
				c33.899-9.644,68.754-40.939,64.406-79.278c-5.226-37.436-43.408-55.709-76.93-60.534c-25.383-3.654-53.002-2.329-77.786,4.439
				c-17.205,4.698-34.591,12.072-47.338,24.94c-12.404,12.523-20.168,31.183-18.66,48.888
				C555.49,789.452,564.869,806.308,577.761,817.041z M659.045,828.425c-0.544,0.107-0.44,0.098,0.319-0.028
				c0.211-0.018,0.401-0.035,0.573-0.051c0.114-0.004,0.228-0.008,0.352-0.012c0.223-0.005,0.424-0.01,0.615-0.015
				c-0.801,0.179-2.107,0.172-2.986,0.202C658.339,828.486,658.709,828.454,659.045,828.425z M670.871,704.699
				c-0.408,0.014-0.776,0.031-1.042,0.048c-0.012-0.001-0.025-0.002-0.038-0.003C670.177,704.702,670.538,704.686,670.871,704.699z
				 M619.803,736.165c6.682-10.005,16.343-17.922,27.045-23.338c1.406-0.712,5.292-2.382,7.765-3.338
				c1.608-0.621,3.231-1.199,4.867-1.743c0.779-0.259,5.952-1.763,1.983-0.693c1.73-0.466,4.83-1.682,7.367-2.162
				c0.344,0.072,0.69,0.138,1.034,0.214c-0.332,0.057-0.663,0.113-0.995,0.17c0.365-0.054,0.731-0.098,1.097-0.149
				c0.084,0.019,0.169,0.033,0.253,0.052c0.848,0.191,2.304,0.604,2.556,0.664c1.442,0.458,2.877,0.933,4.295,1.464
				c2.562,0.96,5.87,2.378,7.771,3.377c9.929,5.216,19.51,13.703,26.035,23.549c3.788,6.417,6.338,13.295,7.373,20.707
				c1.541,13.584-2.299,26.715-9.237,38.307c-6.956,10.6-16.193,19.515-26.989,26.171c-5.455,3.363-11.135,5.687-17.607,7.831
				c-0.215,0.071-0.394,0.132-0.551,0.186c-0.185,0.029-0.433,0.074-0.764,0.138c-0.35,0.082-0.702,0.152-1.053,0.23
				c0.593,0.118,1.569,0.342,3.089,0.733c-0.459-0.05-0.917-0.113-1.376-0.169c0.151,0.003,0.294,0.006,0.452,0.01
				c-0.934-0.092-1.954-0.331-2.505-0.5c-0.137,0.03-0.273,0.06-0.41,0.09c-0.618-0.129-1.236-0.255-1.851-0.397
				c-0.877-0.202-2.078-0.536-2.39-0.617c-1.371-0.428-2.737-0.869-4.089-1.359c-2.829-1.026-5.625-2.178-8.323-3.514
				c-3.354-1.662-9.404-5.676-13.375-9.117c-4.373-3.789-8.066-8.131-11.22-12.955C607.985,779.564,607.611,756.711,619.803,736.165
				z"/>
			<path d="M365.769,882.779c-10.847-13.855-27.949-21.014-44.893-24.044c-27.54-4.924-57.828-4.382-84.511,4.686
				c-17.944,6.099-34.23,17.643-46.745,31.783c-11.363,12.838-20.969,29.076-22.637,46.437c-1.527,15.9,3.271,32.448,13.262,44.911
				c10.397,12.969,26.285,20.87,42.198,24.627c14.862,3.509,30.506,3.957,45.695,3.349c11.246-0.45,22.66-1.847,33.547-4.773
				c18.105-4.866,35.388-13.22,48.908-26.439C376.553,957.932,388.848,913.889,365.769,882.779z M255.79,1002.569
				c-1.675-0.006-3.299,0.027-0.591,0.033c-2.108,0.068-4.205-0.147,0.658-0.047C255.835,1002.56,255.812,1002.565,255.79,1002.569z
				 M308.826,964.348c-6.895,10.638-15.792,19.709-26.371,26.725c-5.342,3.543-9.305,5.624-15.057,7.915
				c-1.767,0.704-3.555,1.357-5.361,1.956c-0.43,0.143-1.594,0.477-2.262,0.675c-1.82-0.693-3.76-1.451-4.519-1.829
				c-8.563-4.263-17.705-11.966-23.597-20.783c-12.589-21.439-9.766-46.755,2.623-67.525c6.705-10.354,15.107-19.512,24.783-27.166
				c4.879-3.86,10.096-7.486,15.616-10.374c1.938-1.014,4.595-2.172,6.924-3.08c1.414-0.551,2.844-1.065,4.285-1.541
				c0.495-0.163,0.995-0.31,1.493-0.464c5.403,1.828,7.918,3.087,12.212,6.071c4.453,3.094,8.328,6.822,11.667,11.087
				c0.759,1.023,1.474,2.069,2.171,3.13C326.978,912.475,322.149,942.013,308.826,964.348z"/>
			<path d="M1439.846,825.725c23.002,10.01,50.022,11.621,74.734,10.062c21.103-1.331,42.381-5.567,60.734-16.493
				c14.138-8.417,24.69-21.715,30.028-37.298c6.309-18.416,1.998-37.914-8.662-53.837c-9.23-13.787-24.34-22.822-39.496-28.787
				c-21.551-8.482-45.603-11.278-68.619-10.89c-25.662,0.432-52.423,4.619-73.783,19.85c-13.971,9.962-24.848,25.145-27.252,42.363
				C1383.704,784.441,1410.956,813.152,1439.846,825.725z M1492.109,700.503c-0.044,0.001-0.088,0.003-0.132,0.004
				c-0.171-0.008-0.357-0.016-0.552-0.023C1491.643,700.48,1491.87,700.486,1492.109,700.503z M1451.439,729.973
				c6.555-9.908,15.69-18.037,26.187-23.604c1.216-0.645,5.19-2.397,7.611-3.307c1.572-0.591,3.182-1.058,4.761-1.62
				c0.695-0.175,1.39-0.351,2.09-0.508c0.088-0.02,0.177-0.035,0.265-0.055c0.116,0.017,0.233,0.03,0.349,0.047
				c1.252,0.184,1.177,0.159-0.223-0.073c0.296-0.065,0.594-0.122,0.891-0.184c2.576,0.468,5.721,1.668,7.474,2.14
				c-3.832-1.033,0.451,0.189,1.281,0.459c1.874,0.61,3.731,1.268,5.57,1.977c2.604,1.004,5.874,2.396,7.901,3.414
				c10.195,5.121,20.259,13.316,26.915,23.272c12.187,20.545,11.81,43.393-0.256,63.831c-3.153,4.823-6.848,9.166-11.219,12.954
				c-2.328,2.017-4.8,3.869-7.374,5.561c-1.124,0.739-2.269,1.447-3.431,2.125c0.122-0.071-2.402,1.322-2.328,1.315
				c-2.765,1.396-5.656,2.574-8.564,3.631c-1.475,0.536-2.978,0.981-4.464,1.481c-0.67,0.17-1.341,0.34-2.014,0.495
				c-0.079,0.018-0.887,0.172-1.776,0.345c-0.435-0.049-0.846-0.108-1.154-0.178c-0.84-0.191-1.313-0.287-1.552-0.325
				c-0.135-0.046-0.294-0.1-0.486-0.164c-6.207-2.056-11.76-4.292-16.975-7.448c-11.02-6.669-20.457-15.669-27.541-26.421
				c-6.988-11.624-10.863-24.805-9.316-38.44C1445.092,743.278,1447.645,736.395,1451.439,729.973z"/>
			<path d="M1975.604,841.417c-25.962-13.064-57.539-14.537-85.919-11.405c-20.444,2.256-42.291,8.846-55.455,25.66
				c-20.45,27.566-12.966,65.183,6.739,90.997c26.465,34.669,73.997,43.771,115.195,40.434c20.121-1.63,39.995-6.38,55.76-19.671
				c11.938-10.065,19.121-24.489,20.859-39.921C2036.953,890.473,2006.633,857.031,1975.604,841.417z M1909.492,840.837
				c-0.01,0-0.02-0.001-0.03-0.001c-0.366-0.033-0.733-0.066-1.099-0.098c-0.472-0.08-0.943-0.16-1.415-0.24
				C1907.247,840.261,1908.365,840.514,1909.492,840.837z M1937.438,975.496C1934.356,976.114,1935.492,975.57,1937.438,975.496
				L1937.438,975.496z M1945.358,975.554C1948.493,975.654,1947.074,975.649,1945.358,975.554L1945.358,975.554z M1968.325,951.927
				c-5.883,8.832-14.165,15.91-23.598,20.761c0.502-0.285-2.757,1.21-3.135,1.362c-0.426,0.17-0.857,0.323-1.287,0.478
				c-0.685-0.206-2.037-0.589-2.341-0.69c-1.58-0.523-3.144-1.092-4.694-1.696c-5.85-2.281-9.73-4.265-15.114-7.777
				c-10.841-7.073-19.953-16.279-26.984-27.129c-13.321-22.335-18.148-51.869-4.604-75.198c0.697-1.061,1.412-2.106,2.171-3.129
				c3.202-4.09,6.897-7.7,11.134-10.717c4.528-3.225,6.875-4.408,12.39-6.323c0.119-0.041,0.239-0.082,0.359-0.121
				c0.257,0.08,0.515,0.154,0.771,0.237c1.444,0.463,2.874,0.963,4.292,1.501c2.584,0.981,5.365,2.148,7.684,3.362
				c5.11,2.675,10.28,6.236,14.946,9.875c9.938,7.753,18.56,17.079,25.41,27.659
				C1978.113,905.159,1980.932,930.484,1968.325,951.927z"/>
		</g>
	</g>
</g>
</svg>
